# xmcd
#
# Track frame offsets:
# 150
# 13426
# 33939
# 51429
# 68992
# 90526
# 110687
# 126008
# 145359
# 166023
# 182753
# 200986
# 216329
# 234685
# 249993
# 266286
# 283449
# 299215
# 314129
#
# Disc length: 4435 seconds
#
#
# Revision: 5
# Processed by: cddbd v1.4PL0 Copyright (c) Steve Scherf et al.
# Submitted via: FreeRIP 2.21 
#
DISCID=3d115113
DTITLE=Shania Twain - UP Blue
DYEAR=1900
DGENRE=
TTITLE0=UP
TTITLE1=
TTITLE2=
TTITLE3=
TTITLE4=
TTITLE5=
TTITLE6=
TTITLE7=
TTITLE8=
TTITLE9=
TTITLE10=
TTITLE11=
TTITLE12=
TTITLE13=
TTITLE14=
TTITLE15=
TTITLE16=
TTITLE17=
TTITLE18=
EXTD=
EXTT0=
EXTT1=
EXTT2=
EXTT3=
EXTT4=
EXTT5=
EXTT6=
EXTT7=
EXTT8=
EXTT9=
EXTT10=
EXTT11=
EXTT12=
EXTT13=
EXTT14=
EXTT15=
EXTT16=
EXTT17=
EXTT18=
PLAYORDER=
